<svg xmlns="http://www.w3.org/2000/svg" viewBox="0 0 200 200" fill="none" shape-rendering="auto"><metadata xmlns:rdf="http://www.w3.org/1999/02/22-rdf-syntax-ns#" xmlns:xsi="http://www.w3.org/2001/XMLSchema-instance" xmlns:dc="http://purl.org/dc/elements/1.1/" xmlns:dcterms="http://purl.org/dc/terms/"><rdf:RDF><rdf:Description><dc:title>Fun Emoji Set</dc:title><dc:creator>Davis Uche</dc:creator><dc:source xsi:type="dcterms:URI">https://www.figma.com/community/file/968125295144990435</dc:source><dcterms:license xsi:type="dcterms:URI">https://creativecommons.org/licenses/by/4.0/</dcterms:license><dc:rights>Remix of „Fun Emoji Set” (https://www.figma.com/community/file/968125295144990435) by „Davis Uche”, licensed under „CC BY 4.0” (https://creativecommons.org/licenses/by/4.0/)</dc:rights></rdf:Description></rdf:RDF></metadata><mask id="viewboxMask"><rect width="200" height="200" rx="0" ry="0" x="0" y="0" fill="#fff" /></mask><g mask="url(#viewboxMask)"><g transform="matrix(1.5625 0 0 1.5625 37.5 110.94)"><path d="M40.54 12h-.75c-9.7.22-20.8 5.3-23.7 16.15a1.36 1.36 0 0 0 .44 1.55 1.41 1.41 0 0 0 2.26-.86c2.55-9.46 12.42-13.89 21.06-14.08 8.24-.16 19.04 3.84 22.46 14.57a1.47 1.47 0 0 0 1.65.55A1.44 1.44 0 0 0 65 28.5C61.85 18.69 52.3 12 40.54 12Z" fill="#000"/></g><g transform="matrix(1.5625 0 0 1.5625 31.25 59.38)"><path d="M74.38 30a13 13 0 0 0 13-13v-.66C87.38 5.9 75.83-.87 68.45.1c-6.54.84-7.07 5.02-7.07 11.24V17a13.01 13.01 0 0 0 13 13Z" fill="#000"/><path d="M70.2 9.67a2.29 2.29 0 1 0 0-4.58 2.29 2.29 0 0 0 0 4.58Z" fill="#fff"/><path opacity=".1" d="M74.44 18.48a5.32 5.32 0 1 0 0-10.64 5.32 5.32 0 0 0 0 10.64Z" fill="#fff"/><path d="M13.37 30a13.01 13.01 0 0 1-13-13v-.66C.38 5.9 11.93-.87 19.32.1c6.56.84 7.07 5.02 7.07 11.24V17a13 13 0 0 1-13 13Z" fill="#000"/><path d="M9.22 9.67a2.29 2.29 0 1 0 0-4.58 2.29 2.29 0 0 0 0 4.58Z" fill="#fff"/><path opacity=".1" d="M13.46 18.48a5.32 5.32 0 1 0 0-10.64 5.32 5.32 0 0 0 0 10.64Z" fill="#fff"/></g></g></svg>