<svg xmlns="http://www.w3.org/2000/svg" viewBox="0 0 200 200" fill="none" shape-rendering="auto"><metadata xmlns:rdf="http://www.w3.org/1999/02/22-rdf-syntax-ns#" xmlns:xsi="http://www.w3.org/2001/XMLSchema-instance" xmlns:dc="http://purl.org/dc/elements/1.1/" xmlns:dcterms="http://purl.org/dc/terms/"><rdf:RDF><rdf:Description><dc:title>Fun Emoji Set</dc:title><dc:creator>Davis Uche</dc:creator><dc:source xsi:type="dcterms:URI">https://www.figma.com/community/file/968125295144990435</dc:source><dcterms:license xsi:type="dcterms:URI">https://creativecommons.org/licenses/by/4.0/</dcterms:license><dc:rights>Remix of „Fun Emoji Set” (https://www.figma.com/community/file/968125295144990435) by „Davis Uche”, licensed under „CC BY 4.0” (https://creativecommons.org/licenses/by/4.0/)</dc:rights></rdf:Description></rdf:RDF></metadata><mask id="viewboxMask"><rect width="200" height="200" rx="0" ry="0" x="0" y="0" fill="#fff" /></mask><g mask="url(#viewboxMask)"><g transform="matrix(1.5625 0 0 1.5625 37.5 110.94)"><path fill-rule="evenodd" clip-rule="evenodd" d="M4 1c0 44 72 44 72 0-24.3 8.87-48.3 9.13-72 0Z" fill="#fff"/><path fill-rule="evenodd" clip-rule="evenodd" d="M11 21c14.35 15.8 43.35 16 58 .58A140.44 140.44 0 0 1 11 21Z" fill="#DDDBDB"/><path d="M40.04 35a40.08 40.08 0 0 1-25.36-8.46C7.08 20.37 3 11.54 3 1.07A1.07 1.07 0 0 1 3.45.2a1.08 1.08 0 0 1 .97-.12c22.91 8.8 46.85 8.8 71.12 0a1.05 1.05 0 0 1 1.46.99c0 10.47-4.02 19.3-11.68 25.47a40.14 40.14 0 0 1-25.28 8.45ZM5.18 2.58c.81 20.8 18.44 30.31 34.86 30.31 16.41 0 34.11-9.5 34.86-30.35-23.78 8.3-47.22 8.32-69.72.03Z" fill="#000"/><path d="M25 36c4.5 5.16 25.03 5.5 30 0a68.29 68.29 0 0 1-30 0Z" fill="#000" style="mix-blend-mode:soft-light" opacity=".4"/></g><g transform="matrix(1.5625 0 0 1.5625 31.25 59.38)"><g fill-rule="evenodd" clip-rule="evenodd"><path d="m7.3-9.5 1.82-1.6L19.18 3.35l17.5-1.54-7.85 15.71 9.31 14.07-1.8 1.58-17.32-2.23L5.76 42.48 2.82 24.74l-15.06-9.03 1.82-1.58 13.77-6.5L7.3-9.52Z" fill="#2B8DD6"/><path d="M9.11-11.1 21.63 1.24 39.13-.3 31.27 15.4l6.86 16.17-17.36-2.61L7.52 40.5 4.64 23.16l-15.06-9.04 15.59-8.1L9.1-11.08Z" fill="#70CDF2"/><path opacity=".4" d="M10.27-8 20.64 3.03 35.35 1.2 18.37 5.67l-8.9-9.8.8-3.87Z" fill="#fff"/><path d="m83.18-9.5-1.8-1.6L71.3 3.35 53.8 1.8l7.85 15.71-9.31 14.07 1.82 1.58 17.32-2.23 13.24 11.55 2.94-17.74 15.06-9.03-1.8-1.58-13.8-6.5-3.94-17.13Z" fill="#2B8DD6"/><path d="M81.38-11.1 68.87 1.24 51.36-.3l7.86 15.72-6.88 16.17 17.38-2.61L82.96 40.5l2.9-17.34 15.06-9.04-15.6-8.1-3.94-17.11Z" fill="#70CDF2"/><path opacity=".4" d="M80.2-8 69.85 3.03 55.14 1.2l16.99 4.47L81-4.13 80.21-8Z" fill="#fff"/></g></g></g></svg>